<?xml version="1.0" encoding="UTF-8"?>
<svg xmlns="http://www.w3.org/2000/svg" xmlns:xlink="http://www.w3.org/1999/xlink" width="383.99pt" height="286.84pt" viewBox="-15 -15 383.99 286.84">
<rect x="-15" y="-15" width="383.99" height="286.84" fill="white"/>
<defs>
<clipPath id="clip-0">
<path clip-rule="nonzero" d="M 0.125 29 L 29 29 L 29 216.679688 L 0.125 216.679688 Z M 0.125 29 "/>
</clipPath>
<clipPath id="clip-1">
<path clip-rule="nonzero" d="M 286 90 L 353.855469 90 L 353.855469 173 L 286 173 Z M 286 90 "/>
</clipPath>
<clipPath id="clip-2">
<path clip-rule="nonzero" d="M 34 192 L 57 192 L 57 216.679688 L 34 216.679688 Z M 34 192 "/>
</clipPath>
<clipPath id="clip-3">
<path clip-rule="nonzero" d="M 59 198 L 77 198 L 77 216.679688 L 59 216.679688 Z M 59 198 "/>
</clipPath>
<clipPath id="clip-4">
<path clip-rule="nonzero" d="M 81 198 L 95 198 L 95 216.679688 L 81 216.679688 Z M 81 198 "/>
</clipPath>
<clipPath id="clip-5">
<path clip-rule="nonzero" d="M 97 198 L 127 198 L 127 216.679688 L 97 216.679688 Z M 97 198 "/>
</clipPath>
<clipPath id="clip-6">
<path clip-rule="nonzero" d="M 130 198 L 147 198 L 147 216.679688 L 130 216.679688 Z M 130 198 "/>
</clipPath>
<clipPath id="clip-7">
<path clip-rule="nonzero" d="M 148 193 L 162 193 L 162 216.679688 L 148 216.679688 Z M 148 193 "/>
</clipPath>
<clipPath id="clip-8">
<path clip-rule="nonzero" d="M 163 198 L 182 198 L 182 216.679688 L 163 216.679688 Z M 163 198 "/>
</clipPath>
<clipPath id="clip-9">
<path clip-rule="nonzero" d="M 185 191 L 204 191 L 204 216.679688 L 185 216.679688 Z M 185 191 "/>
</clipPath>
<clipPath id="clip-10">
<path clip-rule="nonzero" d="M 206 193 L 220 193 L 220 216.679688 L 206 216.679688 Z M 206 193 "/>
</clipPath>
</defs>
<path fill="none" stroke-width="20" stroke-linecap="butt" stroke-linejoin="miter" stroke="rgb(30.917358%, 29.660034%, 29.972839%)" stroke-opacity="1" stroke-miterlimit="4" d="M 497.471105 1866.106799 L 497.471105 2068.912583 C 497.471105 2118.324015 461.116174 2158.392621 416.239335 2158.392621 C 371.362497 2158.392621 334.968475 2118.324015 334.968475 2068.912583 L 334.968475 1866.067707 " transform="matrix(0.0999263, 0, 0, -0.0999263, 0.125507, 216.680118)"/>
<path fill="none" stroke-width="20" stroke-linecap="butt" stroke-linejoin="miter" stroke="rgb(30.917358%, 29.660034%, 29.972839%)" stroke-opacity="1" stroke-miterlimit="4" d="M 334.968475 1440.480473 L 334.968475 1870.015931 C 334.968475 1919.466455 298.613544 1959.535061 253.736705 1959.535061 C 208.859866 1959.535061 172.504936 1919.466455 172.504936 1870.015931 L 172.504936 1667.210147 " transform="matrix(0.0999263, 0, 0, -0.0999263, 0.125507, 216.680118)"/>
<path fill="none" stroke-width="20" stroke-linecap="butt" stroke-linejoin="miter" stroke="rgb(30.917358%, 29.660034%, 29.972839%)" stroke-opacity="1" stroke-miterlimit="4" d="M 659.973735 1667.210147 L 659.973735 1870.015931 C 659.973735 1919.466455 623.618804 1959.535061 578.741966 1959.535061 C 533.865127 1959.535061 497.471105 1919.466455 497.471105 1870.015931 L 497.471105 1440.480473 " transform="matrix(0.0999263, 0, 0, -0.0999263, 0.125507, 216.680118)"/>
<g clip-path="url(#clip-0)">
<path fill="none" stroke-width="20" stroke-linecap="butt" stroke-linejoin="miter" stroke="rgb(30.917358%, 29.660034%, 29.972839%)" stroke-opacity="1" stroke-miterlimit="4" d="M 172.504936 1440.441381 L 172.504936 1671.15837 C 172.504936 1720.569803 136.110914 1760.638409 91.234075 1760.638409 C 46.357236 1760.638409 10.002306 1720.569803 10.002306 1671.15837 L 10.002306 4.460719 " transform="matrix(0.0999263, 0, 0, -0.0999263, 0.125507, 216.680118)"/>
</g>
<path fill="none" stroke-width="20" stroke-linecap="butt" stroke-linejoin="miter" stroke="rgb(30.917358%, 29.660034%, 29.972839%)" stroke-opacity="1" stroke-miterlimit="4" d="M 822.476365 1316.052791 L 822.476365 1671.15837 C 822.476365 1720.569803 786.121435 1760.638409 741.244596 1760.638409 C 696.367757 1760.638409 659.973735 1720.569803 659.973735 1671.15837 L 659.973735 1440.441381 " transform="matrix(0.0999263, 0, 0, -0.0999263, 0.125507, 216.680118)"/>
<path fill-rule="nonzero" fill="rgb(96.078431%, 57.254902%, 11.764706%)" fill-opacity="1" d="M 104.820312 170.996094 L 84.382812 170.996094 L 84.382812 136.078125 L 54.199219 136.078125 L 54.199219 170.996094 L 33.761719 170.996094 L 33.761719 91.738281 L 54.199219 91.738281 L 54.199219 120.746094 L 84.382812 120.746094 L 84.382812 91.738281 L 104.820312 91.738281 L 104.820312 170.996094 "/>
<path fill-rule="nonzero" fill="rgb(96.078431%, 57.254902%, 11.764706%)" fill-opacity="1" d="M 176.746094 170.996094 L 119.417969 170.996094 L 119.417969 91.738281 L 176.746094 91.738281 L 176.746094 107.066406 L 139.75 107.066406 L 139.75 120.746094 L 174.082031 120.746094 L 174.082031 136.078125 L 139.75 136.078125 L 139.75 155.664062 L 176.746094 155.664062 L 176.746094 170.996094 "/>
<path fill-rule="nonzero" fill="rgb(96.078431%, 57.254902%, 11.764706%)" fill-opacity="1" d="M 274.320312 170.996094 L 253.988281 170.996094 L 253.988281 117.925781 L 239.296875 152.363281 L 225.191406 152.363281 L 210.5 117.925781 L 210.5 170.996094 L 191.234375 170.996094 L 191.234375 91.738281 L 214.972656 91.738281 L 232.804688 131.5 L 250.582031 91.738281 L 274.320312 91.738281 L 274.320312 170.996094 "/>
<g clip-path="url(#clip-1)">
<path fill-rule="nonzero" fill="rgb(96.078431%, 57.254902%, 11.764706%)" fill-opacity="1" d="M 316.96875 172.433594 C 310.402344 172.433594 304.679688 171.855469 299.800781 170.703125 C 294.921875 169.550781 290.355469 168.085938 286.09375 166.3125 L 286.09375 147.308594 L 288.332031 147.308594 C 292.554688 150.679688 297.28125 153.269531 302.515625 155.078125 C 307.75 156.890625 312.78125 157.792969 317.605469 157.792969 C 318.847656 157.792969 320.480469 157.6875 322.503906 157.472656 C 324.527344 157.261719 326.175781 156.90625 327.453125 156.410156 C 329.015625 155.769531 330.300781 154.972656 331.3125 154.015625 C 332.324219 153.058594 332.832031 151.636719 332.832031 149.757812 C 332.832031 148.019531 332.09375 146.519531 330.621094 145.257812 C 329.148438 144 326.992188 143.03125 324.15625 142.359375 C 321.171875 141.648438 318.023438 140.984375 314.707031 140.363281 C 311.386719 139.742188 308.273438 138.953125 305.363281 137.992188 C 298.691406 135.828125 293.894531 132.890625 290.964844 129.183594 C 288.039062 125.476562 286.574219 120.871094 286.574219 115.371094 C 286.574219 107.992188 289.882812 101.964844 296.5 97.300781 C 303.117188 92.632812 311.625 90.300781 322.023438 90.300781 C 327.242188 90.300781 332.394531 90.804688 337.488281 91.816406 C 342.582031 92.828125 346.988281 94.097656 350.714844 95.621094 L 350.714844 113.878906 L 348.535156 113.878906 C 345.339844 111.324219 341.425781 109.1875 336.796875 107.464844 C 332.164062 105.746094 327.4375 104.882812 322.609375 104.882812 C 320.90625 104.882812 319.214844 105 317.527344 105.230469 C 315.839844 105.460938 314.21875 105.894531 312.65625 106.535156 C 311.273438 107.066406 310.082031 107.875 309.089844 108.957031 C 308.097656 110.039062 307.601562 111.273438 307.601562 112.65625 C 307.601562 114.75 308.398438 116.355469 309.996094 117.472656 C 311.59375 118.589844 314.609375 119.613281 319.046875 120.535156 C 321.953125 121.136719 324.746094 121.722656 327.429688 122.289062 C 330.105469 122.859375 332.988281 123.640625 336.078125 124.632812 C 342.144531 126.621094 346.625 129.324219 349.519531 132.75 C 352.410156 136.175781 353.855469 140.617188 353.855469 146.082031 C 353.855469 153.890625 350.546875 160.234375 343.929688 165.113281 C 337.3125 169.992188 328.324219 172.433594 316.96875 172.433594 "/>
</g>
<g transform="translate(5, 0) scale(0.655, 1) translate(-5, 0)">
<text x="5" y="223" font-family="Arial, Helvetica, sans-serif" font-weight="900" font-size="35" fill="rgb(30.917358%, 29.660034%, 29.972839%)">Heinrich-Emanuel-Merck-Schule</text>
</g>
<g transform="translate(-28, 39)">
<g clip-path="url(#clip-2)">
<path fill-rule="nonzero" fill="rgb(30.917358%, 29.660034%, 29.972839%)" fill-opacity="1" d="M 49.851562 204.546875 C 49.851562 203.019531 49.574219 201.710938 49.015625 200.621094 C 48.460938 199.535156 47.578125 198.683594 46.371094 198.070312 C 45.757812 197.765625 45.128906 197.5625 44.488281 197.453125 C 43.847656 197.34375 42.882812 197.289062 41.59375 197.289062 L 40.078125 197.289062 L 40.078125 211.839844 L 41.59375 211.839844 C 43.019531 211.839844 44.066406 211.777344 44.730469 211.644531 C 45.398438 211.515625 46.046875 211.277344 46.683594 210.933594 C 47.777344 210.308594 48.578125 209.472656 49.085938 208.429688 C 49.597656 207.382812 49.851562 206.089844 49.851562 204.546875 Z M 56.050781 204.59375 C 56.050781 206.761719 55.554688 208.699219 54.566406 210.410156 C 53.578125 212.125 52.328125 213.4375 50.820312 214.355469 C 49.6875 215.039062 48.441406 215.519531 47.089844 215.789062 C 45.734375 216.0625 44.132812 216.195312 42.28125 216.195312 L 34.082031 216.195312 L 34.082031 192.949219 L 42.515625 192.949219 C 44.40625 192.949219 46.042969 193.105469 47.417969 193.421875 C 48.789062 193.742188 49.945312 194.191406 50.882812 194.773438 C 52.484375 195.753906 53.746094 197.074219 54.667969 198.734375 C 55.589844 200.394531 56.050781 202.347656 56.050781 204.59375 "/>
</g>
<g clip-path="url(#clip-3)">
<path fill-rule="nonzero" fill="rgb(30.917358%, 29.660034%, 29.972839%)" fill-opacity="1" d="M 70.929688 211.609375 L 70.929688 207.96875 C 70.171875 208.03125 69.347656 208.117188 68.464844 208.222656 C 67.578125 208.332031 66.90625 208.460938 66.449219 208.605469 C 65.886719 208.78125 65.457031 209.039062 65.160156 209.375 C 64.863281 209.714844 64.714844 210.15625 64.714844 210.707031 C 64.714844 211.070312 64.746094 211.363281 64.808594 211.59375 C 64.871094 211.820312 65.027344 212.039062 65.277344 212.246094 C 65.515625 212.457031 65.804688 212.609375 66.136719 212.707031 C 66.46875 212.804688 66.992188 212.855469 67.699219 212.855469 C 68.261719 212.855469 68.832031 212.738281 69.410156 212.511719 C 69.984375 212.285156 70.492188 211.984375 70.929688 211.609375 Z M 70.929688 214.335938 C 70.628906 214.566406 70.253906 214.84375 69.804688 215.164062 C 69.359375 215.488281 68.9375 215.742188 68.542969 215.929688 C 67.988281 216.179688 67.417969 216.363281 66.824219 216.484375 C 66.230469 216.605469 65.578125 216.664062 64.871094 216.664062 C 63.207031 216.664062 61.8125 216.148438 60.6875 215.117188 C 59.5625 214.089844 59.003906 212.773438 59.003906 211.167969 C 59.003906 209.886719 59.289062 208.839844 59.859375 208.03125 C 60.433594 207.21875 61.246094 206.578125 62.296875 206.109375 C 63.335938 205.640625 64.628906 205.308594 66.167969 205.109375 C 67.707031 204.914062 69.308594 204.765625 70.960938 204.671875 L 70.960938 204.578125 C 70.960938 203.613281 70.566406 202.941406 69.773438 202.574219 C 68.984375 202.203125 67.816406 202.019531 66.277344 202.019531 C 65.351562 202.019531 64.363281 202.183594 63.3125 202.511719 C 62.257812 202.839844 61.503906 203.089844 61.046875 203.269531 L 60.53125 203.269531 L 60.53125 199.039062 C 61.125 198.878906 62.089844 198.695312 63.429688 198.484375 C 64.765625 198.269531 66.105469 198.164062 67.449219 198.164062 C 70.644531 198.164062 72.953125 198.65625 74.375 199.636719 C 75.792969 200.621094 76.503906 202.164062 76.503906 204.265625 L 76.503906 216.195312 L 70.929688 216.195312 L 70.929688 214.335938 "/>
</g>
<g clip-path="url(#clip-4)">
<path fill-rule="nonzero" fill="rgb(30.917358%, 29.660034%, 29.972839%)" fill-opacity="1" d="M 94.382812 204.015625 L 93.882812 204.015625 C 93.644531 203.933594 93.261719 203.871094 92.730469 203.828125 C 92.203125 203.789062 91.757812 203.769531 91.40625 203.769531 C 90.605469 203.769531 89.902344 203.820312 89.289062 203.921875 C 88.675781 204.027344 88.015625 204.203125 87.308594 204.453125 L 87.308594 216.195312 L 81.671875 216.195312 L 81.671875 198.664062 L 87.308594 198.664062 L 87.308594 201.238281 C 88.546875 200.175781 89.621094 199.472656 90.535156 199.125 C 91.449219 198.773438 92.289062 198.597656 93.058594 198.597656 C 93.253906 198.597656 93.480469 198.605469 93.726562 198.617188 C 93.976562 198.625 94.195312 198.640625 94.382812 198.664062 L 94.382812 204.015625 "/>
</g>
<g clip-path="url(#clip-5)">
<path fill-rule="nonzero" fill="rgb(30.917358%, 29.660034%, 29.972839%)" fill-opacity="1" d="M 114.695312 203.769531 L 114.695312 216.195312 L 109.058594 216.195312 L 109.058594 207.4375 C 109.058594 206.582031 109.039062 205.859375 108.996094 205.257812 C 108.953125 204.660156 108.839844 204.171875 108.652344 203.796875 C 108.464844 203.425781 108.183594 203.152344 107.800781 202.980469 C 107.421875 202.808594 106.890625 202.722656 106.203125 202.722656 C 105.648438 202.722656 105.113281 202.832031 104.59375 203.058594 C 104.074219 203.28125 103.605469 203.519531 103.1875 203.769531 L 103.1875 216.195312 L 97.550781 216.195312 L 97.550781 198.664062 L 103.1875 198.664062 L 103.1875 200.597656 C 104.15625 199.839844 105.078125 199.246094 105.964844 198.816406 C 106.847656 198.390625 107.824219 198.179688 108.894531 198.179688 C 110.050781 198.179688 111.066406 198.433594 111.953125 198.949219 C 112.835938 199.464844 113.527344 200.222656 114.027344 201.222656 C 115.148438 200.277344 116.238281 199.53125 117.300781 198.988281 C 118.359375 198.449219 119.398438 198.179688 120.417969 198.179688 C 122.308594 198.179688 123.746094 198.746094 124.730469 199.878906 C 125.710938 201.015625 126.203125 202.648438 126.203125 204.78125 L 126.203125 216.195312 L 120.566406 216.195312 L 120.566406 207.4375 C 120.566406 206.574219 120.546875 205.84375 120.511719 205.25 C 120.476562 204.65625 120.363281 204.171875 120.175781 203.796875 C 120 203.425781 119.71875 203.152344 119.332031 202.980469 C 118.945312 202.808594 118.40625 202.722656 117.707031 202.722656 C 117.238281 202.722656 116.78125 202.800781 116.335938 202.964844 C 115.886719 203.125 115.339844 203.394531 114.695312 203.769531 "/>
</g>
<g clip-path="url(#clip-6)">
<path fill-rule="nonzero" fill="rgb(30.917358%, 29.660034%, 29.972839%)" fill-opacity="1" d="M 146.640625 210.636719 C 146.640625 212.449219 145.828125 213.90625 144.207031 215.015625 C 142.582031 216.125 140.359375 216.679688 137.539062 216.679688 C 135.976562 216.679688 134.558594 216.535156 133.292969 216.242188 C 132.019531 215.953125 131 215.628906 130.230469 215.273438 L 130.230469 210.652344 L 130.746094 210.652344 C 131.027344 210.851562 131.351562 211.066406 131.722656 211.300781 C 132.089844 211.535156 132.613281 211.789062 133.292969 212.058594 C 133.875 212.296875 134.535156 212.503906 135.273438 212.675781 C 136.011719 212.847656 136.804688 212.933594 137.648438 212.933594 C 138.75 212.933594 139.566406 212.8125 140.097656 212.566406 C 140.628906 212.320312 140.894531 211.960938 140.894531 211.480469 C 140.894531 211.054688 140.738281 210.746094 140.425781 210.550781 C 140.113281 210.359375 139.519531 210.175781 138.644531 209.996094 C 138.230469 209.902344 137.664062 209.800781 136.953125 209.691406 C 136.238281 209.582031 135.589844 209.449219 135.007812 209.292969 C 133.417969 208.878906 132.234375 208.230469 131.464844 207.351562 C 130.695312 206.472656 130.308594 205.375 130.308594 204.0625 C 130.308594 202.378906 131.109375 200.976562 132.707031 199.855469 C 134.300781 198.738281 136.484375 198.179688 139.253906 198.179688 C 140.566406 198.179688 141.824219 198.308594 143.027344 198.578125 C 144.226562 198.839844 145.167969 199.125 145.84375 199.425781 L 145.84375 203.863281 L 145.359375 203.863281 C 144.527344 203.289062 143.578125 202.824219 142.511719 202.464844 C 141.441406 202.105469 140.363281 201.925781 139.269531 201.925781 C 138.367188 201.925781 137.601562 202.050781 136.984375 202.300781 C 136.363281 202.550781 136.054688 202.90625 136.054688 203.363281 C 136.054688 203.777344 136.195312 204.09375 136.476562 204.3125 C 136.757812 204.53125 137.417969 204.75 138.460938 204.96875 C 139.03125 205.085938 139.648438 205.195312 140.308594 205.304688 C 140.96875 205.414062 141.632812 205.554688 142.300781 205.71875 C 143.777344 206.105469 144.871094 206.710938 145.578125 207.539062 C 146.285156 208.367188 146.640625 209.398438 146.640625 210.636719 "/>
</g>
<g clip-path="url(#clip-7)">
<path fill-rule="nonzero" fill="rgb(30.917358%, 29.660034%, 29.972839%)" fill-opacity="1" d="M 161.582031 216.042969 C 160.980469 216.195312 160.339844 216.316406 159.660156 216.40625 C 158.984375 216.496094 158.15625 216.539062 157.179688 216.539062 C 154.992188 216.539062 153.367188 216.097656 152.300781 215.210938 C 151.234375 214.328125 150.699219 212.8125 150.699219 210.667969 L 150.699219 202.472656 L 148.390625 202.472656 L 148.390625 198.664062 L 150.699219 198.664062 L 150.699219 193.648438 L 156.335938 193.648438 L 156.335938 198.664062 L 161.582031 198.664062 L 161.582031 202.472656 L 156.335938 202.472656 L 156.335938 208.695312 C 156.335938 209.3125 156.339844 209.847656 156.351562 210.304688 C 156.363281 210.765625 156.445312 211.175781 156.601562 211.539062 C 156.746094 211.90625 157.003906 212.195312 157.371094 212.410156 C 157.738281 212.621094 158.277344 212.730469 158.984375 212.730469 C 159.273438 212.730469 159.652344 212.667969 160.125 212.542969 C 160.597656 212.417969 160.929688 212.304688 161.117188 212.199219 L 161.582031 212.199219 L 161.582031 216.042969 "/>
</g>
<g clip-path="url(#clip-8)">
<path fill-rule="nonzero" fill="rgb(30.917358%, 29.660034%, 29.972839%)" fill-opacity="1" d="M 175.558594 211.609375 L 175.558594 207.96875 C 174.796875 208.03125 173.972656 208.117188 173.089844 208.222656 C 172.203125 208.332031 171.53125 208.460938 171.074219 208.605469 C 170.515625 208.78125 170.085938 209.039062 169.789062 209.375 C 169.492188 209.714844 169.34375 210.15625 169.34375 210.707031 C 169.34375 211.070312 169.375 211.363281 169.4375 211.59375 C 169.5 211.820312 169.65625 212.039062 169.902344 212.246094 C 170.144531 212.457031 170.429688 212.609375 170.761719 212.707031 C 171.097656 212.804688 171.617188 212.855469 172.324219 212.855469 C 172.886719 212.855469 173.457031 212.738281 174.035156 212.511719 C 174.613281 212.285156 175.121094 211.984375 175.558594 211.609375 Z M 175.558594 214.335938 C 175.253906 214.566406 174.878906 214.84375 174.433594 215.164062 C 173.984375 215.488281 173.5625 215.742188 173.167969 215.929688 C 172.617188 216.179688 172.042969 216.363281 171.449219 216.484375 C 170.855469 216.605469 170.207031 216.664062 169.5 216.664062 C 167.832031 216.664062 166.4375 216.148438 165.316406 215.117188 C 164.191406 214.089844 163.628906 212.773438 163.628906 211.167969 C 163.628906 209.886719 163.914062 208.839844 164.484375 208.03125 C 165.058594 207.21875 165.871094 206.578125 166.921875 206.109375 C 167.960938 205.640625 169.253906 205.308594 170.792969 205.109375 C 172.335938 204.914062 173.933594 204.765625 175.589844 204.671875 L 175.589844 204.578125 C 175.589844 203.613281 175.191406 202.941406 174.402344 202.574219 C 173.609375 202.203125 172.445312 202.019531 170.902344 202.019531 C 169.976562 202.019531 168.988281 202.183594 167.9375 202.511719 C 166.886719 202.839844 166.132812 203.089844 165.671875 203.269531 L 165.15625 203.269531 L 165.15625 199.039062 C 165.75 198.878906 166.714844 198.695312 168.054688 198.484375 C 169.390625 198.269531 170.730469 198.164062 172.074219 198.164062 C 175.269531 198.164062 177.578125 198.65625 179 199.636719 C 180.421875 200.621094 181.132812 202.164062 181.132812 204.265625 L 181.132812 216.195312 L 175.558594 216.195312 L 175.558594 214.335938 "/>
</g>
<g clip-path="url(#clip-9)">
<path fill-rule="nonzero" fill="rgb(30.917358%, 29.660034%, 29.972839%)" fill-opacity="1" d="M 197.710938 211.371094 L 197.710938 202.753906 C 197.316406 202.585938 196.902344 202.46875 196.464844 202.394531 C 196.03125 202.320312 195.628906 202.285156 195.265625 202.285156 C 193.792969 202.285156 192.683594 202.746094 191.949219 203.667969 C 191.210938 204.589844 190.839844 205.871094 190.839844 207.507812 C 190.839844 209.226562 191.136719 210.476562 191.730469 211.253906 C 192.320312 212.03125 193.273438 212.417969 194.582031 212.417969 C 195.089844 212.417969 195.628906 212.320312 196.203125 212.128906 C 196.773438 211.9375 197.277344 211.683594 197.710938 211.371094 Z M 203.347656 216.195312 L 197.710938 216.195312 L 197.710938 214.367188 C 196.746094 215.160156 195.839844 215.742188 195 216.117188 C 194.15625 216.492188 193.183594 216.679688 192.082031 216.679688 C 189.953125 216.679688 188.246094 215.859375 186.96875 214.210938 C 185.6875 212.570312 185.050781 210.351562 185.050781 207.5625 C 185.050781 206.074219 185.265625 204.753906 185.695312 203.605469 C 186.128906 202.453125 186.71875 201.46875 187.46875 200.644531 C 188.171875 199.863281 189.03125 199.257812 190.039062 198.824219 C 191.046875 198.394531 192.054688 198.179688 193.066406 198.179688 C 194.117188 198.179688 194.976562 198.289062 195.644531 198.511719 C 196.316406 198.738281 197.003906 199.019531 197.710938 199.363281 L 197.710938 191.902344 L 203.347656 191.902344 L 203.347656 216.195312 "/>
</g>
<g clip-path="url(#clip-10)">
<path fill-rule="nonzero" fill="rgb(30.917358%, 29.660034%, 29.972839%)" fill-opacity="1" d="M 219.867188 216.042969 C 219.265625 216.195312 218.625 216.316406 217.945312 216.40625 C 217.269531 216.496094 216.441406 216.539062 215.464844 216.539062 C 213.277344 216.539062 211.652344 216.097656 210.585938 215.210938 C 209.519531 214.328125 208.984375 212.8125 208.984375 210.667969 L 208.984375 202.472656 L 206.675781 202.472656 L 206.675781 198.664062 L 208.984375 198.664062 L 208.984375 193.648438 L 214.621094 193.648438 L 214.621094 198.664062 L 219.867188 198.664062 L 219.867188 202.472656 L 214.621094 202.472656 L 214.621094 208.695312 C 214.621094 209.3125 214.625 209.847656 214.636719 210.304688 C 214.648438 210.765625 214.730469 211.175781 214.886719 211.539062 C 215.03125 211.90625 215.289062 212.195312 215.65625 212.410156 C 216.023438 212.621094 216.5625 212.730469 217.269531 212.730469 C 217.558594 212.730469 217.941406 212.667969 218.410156 212.542969 C 218.882812 212.417969 219.214844 212.304688 219.402344 212.199219 L 219.867188 212.199219 L 219.867188 216.042969 "/>
</g>
</g>
</svg>
